#N canvas 827 239 734 565 12;
#X obj 71 338 *~;
#X obj 124 338 *~;
#X obj 290 288 pow 2;
#X obj 376 112 soundfiler;
#N canvas 0 0 450 250 (subpatch) 0;
#X array sample_L 790929 float 2;
#X coords 0 1 790929 -1 200 61 1;
#X restore 61 125 graph;
#N canvas 0 0 450 250 (subpatch) 0;
#X array sample_R 790929 float 2;
#X coords 0 1 790929 -1 200 63 1;
#X restore 61 64 graph;
#X obj 6 89 bng 25 250 50 0 empty empty START 17 7 0 10 #e4e4e4 #4d4d4d #373737;
#X msg 6 166 stop;
#X obj 61 221 tabplay~ sample_L;
#X obj 290 216 tabplay~ sample_R;
#X obj 276 57 vsl 43 128 0 1 0 1 empty empty empty 0 -9 0 10 #e4e4e4 #4d4d4d #373737 0 1;
#X obj 71 16 bng 25 250 50 0 empty empty APHEX\ TWIN 17 7 0 10 #e4e4e4 #4d4d4d #373737;
#X obj 166 16 bng 25 250 50 0 empty empty BREAKS 17 7 0 10 #e4e4e4 #4d4d4d #373737;
#X obj 71 417 outlet~;
#X obj 139 417 outlet~;
#X obj 6 125 bng 25 250 50 0 empty empty STOP 17 7 0 10 #e4e4e4 #4d4d4d #373737;
#X msg 376 72 read -resize ../samples/alberto_balsalm.wav sample_L sample_R;
#X msg 792 72 read -resize ../samples/shack_up.wav sample_L sample_R;
#X connect 0 0 13 0;
#X connect 1 0 14 0;
#X connect 2 0 0 1;
#X connect 2 0 1 1;
#X connect 6 0 8 0;
#X connect 6 0 9 0;
#X connect 7 0 8 0;
#X connect 7 0 9 0;
#X connect 8 0 0 0;
#X connect 8 1 6 0;
#X connect 9 0 1 0;
#X connect 10 0 2 0;
#X connect 11 0 16 0;
#X connect 12 0 17 0;
#X connect 15 0 7 0;
#X connect 16 0 3 0;
#X connect 17 0 3 0;
#X coords 0 0 1 1 350 206 1 0 0;
