#N canvas 827 239 734 565 12;
#X obj 40 15 plate.rev.m~;
#A saved 16.4579 0.22 0.214 0.354 1;
#A saved;
#A saved;
#A saved;
#A saved;
#A saved;
#X obj 40 356 *~;
#X obj 219 246 pow 2;
#X obj 166 356 *~;
#X obj 219 69 vsl 51 128 0 1 0 1 empty empty REVERB\ AMOUNT 0 -9 0 10 #e4e4e4 #4d4d4d #373737 6302 1;
#X obj -12 -50 inlet~;
#X obj -141 465 outlet~;
#X obj -40 465 outlet~;
#X connect 0 0 1 0;
#X connect 0 1 3 0;
#X connect 1 0 6 0;
#X connect 2 0 1 1;
#X connect 2 0 3 1;
#X connect 3 0 7 0;
#X connect 4 0 2 0;
#X connect 5 0 6 0;
#X connect 5 0 7 0;
#X connect 5 0 0 0;
#X coords 0 0 1 1 301 286 1 0 0;
