#N canvas 827 239 734 565 12;
#X obj 590 552 out~;
#X obj 590 97 modules/QuickSample;
#X obj 590 390 nn~ models/vintage.ts encode;
#X obj 590 476 nn~ models/vintage.ts decode;
#X obj 65 499 snapshot~;
#X floatatom 65 525 9 0 0 0 - - - 16;
#X obj 64 362 tgl 25 0 empty empty empty 17 7 0 10 #e4e4e4 #4d4d4d #373737 0 1;
#X obj 64 424 metro 100;
#X obj 64 318 loadbang;
#X obj 189 499 snapshot~;
#X floatatom 189 525 9 0 0 0 - - - 16;
#X obj 305 499 snapshot~;
#X floatatom 305 525 9 0 0 0 - - - 16;
#X obj 429 499 snapshot~;
#X floatatom 429 525 9 0 0 0 - - - 16;
#X connect 1 0 2 0;
#X connect 1 1 2 0;
#X connect 2 0 3 0;
#X connect 2 0 4 0;
#X connect 2 1 3 1;
#X connect 2 1 9 0;
#X connect 2 2 3 2;
#X connect 2 2 11 0;
#X connect 2 3 3 3;
#X connect 2 3 13 0;
#X connect 2 4 3 4;
#X connect 2 5 3 5;
#X connect 2 6 3 6;
#X connect 2 7 3 7;
#X connect 2 8 3 8;
#X connect 2 9 3 9;
#X connect 2 10 3 10;
#X connect 2 11 3 11;
#X connect 2 12 3 12;
#X connect 2 13 3 13;
#X connect 2 14 3 14;
#X connect 2 15 3 15;
#X connect 3 0 0 0;
#X connect 3 1 0 1;
#X connect 4 0 5 0;
#X connect 6 0 7 0;
#X connect 7 0 4 0;
#X connect 7 0 9 0;
#X connect 7 0 11 0;
#X connect 7 0 13 0;
#X connect 8 0 6 0;
#X connect 9 0 10 0;
#X connect 11 0 12 0;
#X connect 13 0 14 0;
