#N canvas 827 239 734 565 12;
#X obj 258 147 modules/QuickSample;
#X obj 295 1225 out~;
#X obj 783 1045 out~;
#X obj 383 880 modules/QuickReverb;
#X obj 1292 52 modules/QuickSynth;
#X obj 268 791 nn~ models/vintage.ts forward;
#X connect 0 0 2 0;
#X connect 0 0 5 0;
#X connect 0 1 2 1;
#X connect 0 1 5 0;
#X connect 3 0 1 0;
#X connect 3 1 1 1;
#X connect 5 0 1 0;
#X connect 5 0 3 0;
#X connect 5 1 1 1;
#X connect 5 1 3 0;
