#N canvas 827 239 734 565 12;
#X obj 921 1595 out~;
#X obj 718 281 vsl 41 128 -3 3 0 1 empty empty empty 0 -9 0 10 #e4e4e4 #4d4d4d #373737 6350 1;
#X obj 718 469 sig~;
#X obj 786 281 vsl 41 128 -3 3 0 1 empty empty empty 0 -9 0 10 #e4e4e4 #4d4d4d #373737 6350 1;
#X obj 786 469 sig~;
#X obj 851 281 vsl 41 128 -3 3 0 1 empty empty empty 0 -9 0 10 #e4e4e4 #4d4d4d #373737 6350 1;
#X obj 851 469 sig~;
#X obj 921 281 vsl 41 128 -3 3 0 1 empty empty empty 0 -9 0 10 #e4e4e4 #4d4d4d #373737 6350 1;
#X obj 921 469 sig~;
#X obj 991 281 vsl 41 128 -3 3 0 1 empty empty empty 0 -9 0 10 #e4e4e4 #4d4d4d #373737 6350 1;
#X obj 991 469 sig~;
#X obj 1061 281 vsl 41 128 -3 3 0 1 empty empty empty 0 -9 0 10 #e4e4e4 #4d4d4d #373737 6350 1;
#X obj 1061 469 sig~;
#X msg 719 147 0;
#X obj 1047 1095 plate.rev.m~;
#A saved 50 0.496 0.25 0.75 1;
#A saved;
#A saved;
#A saved;
#A saved;
#A saved;
#X obj 1047 1440 *~;
#X obj 1104 1440 *~;
#X obj 1221 1175 vsl 41 128 0 1 0 1 empty empty empty 0 -9 0 10 #e4e4e4 #4d4d4d #373737 0 1;
#X obj 1221 1326 pow 2;
#X obj 1130 281 vsl 41 128 -3 3 0 1 empty empty empty 0 -9 0 10 #e4e4e4 #4d4d4d #373737 6350 1;
#X obj 1130 469 sig~;
#X obj 1198 281 vsl 41 128 -3 3 0 1 empty empty empty 0 -9 0 10 #e4e4e4 #4d4d4d #373737 6350 1;
#X obj 1198 469 sig~;
#X obj 1263 281 vsl 41 128 -3 3 0 1 empty empty empty 0 -9 0 10 #e4e4e4 #4d4d4d #373737 6350 1;
#X obj 1263 469 sig~;
#X obj 1333 281 vsl 41 128 -3 3 0 1 empty empty empty 0 -9 0 10 #e4e4e4 #4d4d4d #373737 6350 1;
#X obj 1333 469 sig~;
#X obj 1403 281 vsl 41 128 -3 3 0 1 empty empty empty 0 -9 0 10 #e4e4e4 #4d4d4d #373737 6350 1;
#X obj 1403 469 sig~;
#X obj 1473 281 vsl 41 128 -3 3 0 1 empty empty empty 0 -9 0 10 #e4e4e4 #4d4d4d #373737 6350 1;
#X obj 1473 469 sig~;
#X obj 1546 281 vsl 41 128 -3 3 0 1 empty empty empty 0 -9 0 10 #e4e4e4 #4d4d4d #373737 6350 1;
#X obj 1546 469 sig~;
#X obj 1616 281 vsl 41 128 -3 3 0 1 empty empty empty 0 -9 0 10 #e4e4e4 #4d4d4d #373737 6350 1;
#X obj 1616 469 sig~;
#X obj 1686 281 vsl 41 128 -3 3 0 1 empty empty empty 0 -9 0 10 #e4e4e4 #4d4d4d #373737 6350 1;
#X obj 1686 469 sig~;
#X obj 1756 281 vsl 41 128 -3 3 0 1 empty empty empty 0 -9 0 10 #e4e4e4 #4d4d4d #373737 6350 1;
#X obj 1756 469 sig~;
#X obj 926 966 *~;
#X obj 979 966 *~;
#X obj 1035 755 vsl 41 128 0 1 0 1 empty empty empty 0 -9 0 10 #e4e4e4 #4d4d4d #373737 7968 1;
#X obj 1035 903 pow 2;
#X floatatom 718 429 4 0 0 0 - - - 24;
#X floatatom 786 429 4 0 0 0 - - - 24;
#X floatatom 851 429 4 0 0 0 - - - 24;
#X floatatom 921 429 4 0 0 0 - - - 24;
#X floatatom 991 429 4 0 0 0 - - - 24;
#X floatatom 1061 429 4 0 0 0 - - - 24;
#X floatatom 1130 429 4 0 0 0 - - - 24;
#X floatatom 1198 429 4 0 0 0 - - - 24;
#X floatatom 1263 429 4 0 0 0 - - - 24;
#X floatatom 1333 429 4 0 0 0 - - - 24;
#X floatatom 1403 429 4 0 0 0 - - - 24;
#X floatatom 1473 429 4 0 0 0 - - - 24;
#X floatatom 1546 429 4 0 0 0 - - - 24;
#X floatatom 1616 429 4 0 0 0 - - - 24;
#X floatatom 1686 429 4 0 0 0 - - - 24;
#X floatatom 1756 429 4 0 0 0 - - - 24;
#X obj 865 659 nn~ models/vintage.ts decode;
#X connect 1 0 43 0;
#X connect 2 0 59 0;
#X connect 3 0 44 0;
#X connect 4 0 59 1;
#X connect 5 0 45 0;
#X connect 6 0 59 2;
#X connect 7 0 46 0;
#X connect 8 0 59 3;
#X connect 9 0 47 0;
#X connect 10 0 59 4;
#X connect 11 0 48 0;
#X connect 12 0 59 5;
#X connect 13 0 1 0;
#X connect 13 0 3 0;
#X connect 13 0 5 0;
#X connect 13 0 7 0;
#X connect 13 0 9 0;
#X connect 13 0 11 0;
#X connect 13 0 19 0;
#X connect 13 0 29 0;
#X connect 13 0 27 0;
#X connect 13 0 25 0;
#X connect 13 0 23 0;
#X connect 13 0 21 0;
#X connect 13 0 31 0;
#X connect 13 0 33 0;
#X connect 13 0 35 0;
#X connect 13 0 37 0;
#X connect 14 0 15 0;
#X connect 14 1 16 0;
#X connect 15 0 0 0;
#X connect 16 0 0 1;
#X connect 17 0 18 0;
#X connect 18 0 16 1;
#X connect 18 0 15 1;
#X connect 19 0 49 0;
#X connect 20 0 59 6;
#X connect 21 0 50 0;
#X connect 22 0 59 7;
#X connect 23 0 51 0;
#X connect 24 0 59 8;
#X connect 25 0 52 0;
#X connect 26 0 59 9;
#X connect 27 0 53 0;
#X connect 28 0 59 10;
#X connect 29 0 54 0;
#X connect 30 0 59 11;
#X connect 31 0 55 0;
#X connect 32 0 59 12;
#X connect 33 0 56 0;
#X connect 34 0 59 13;
#X connect 35 0 57 0;
#X connect 36 0 59 14;
#X connect 37 0 58 0;
#X connect 38 0 59 15;
#X connect 39 0 0 0;
#X connect 39 0 14 0;
#X connect 40 0 0 1;
#X connect 40 0 14 0;
#X connect 41 0 42 0;
#X connect 42 0 40 1;
#X connect 42 0 39 1;
#X connect 43 0 2 0;
#X connect 44 0 4 0;
#X connect 45 0 6 0;
#X connect 46 0 8 0;
#X connect 47 0 10 0;
#X connect 48 0 12 0;
#X connect 49 0 20 0;
#X connect 50 0 22 0;
#X connect 51 0 24 0;
#X connect 52 0 26 0;
#X connect 53 0 28 0;
#X connect 54 0 30 0;
#X connect 55 0 32 0;
#X connect 56 0 34 0;
#X connect 57 0 36 0;
#X connect 58 0 38 0;
#X connect 59 0 39 0;
#X connect 59 1 40 0;
