#N canvas 827 239 734 565 12;
#X obj 224 1537 out~;
#X obj 129 151 modules/QuickSynth;
#X obj 129 1097 modules/QuickReverb;
#X obj 483 1167 modules/QuickSample;
#X connect 1 0 2 0;
#X connect 2 0 0 0;
#X connect 2 1 0 1;
#X connect 3 0 0 0;
#X connect 3 1 0 1;
